<?xml version="1.0" encoding="iso-8859-1"?>
<!-- Uploaded to: SVG Repo, www.svgrepo.com, Generator: SVG Repo Mixer Tools -->
<svg version="1.1" id="Layer_1" xmlns="http://www.w3.org/2000/svg" xmlns:xlink="http://www.w3.org/1999/xlink" 
	 viewBox="0 0 495 495" xml:space="preserve">
<g>
	<polygon style="fill:#C61469;" points="247.5,0 247.5,40 455,40 455,455 247.5,455 247.5,495 495,495 495,0 	"/>
	<polygon style="fill:#EA348B;" points="40,455 40,40 247.5,40 247.5,0 0,0 0,495 247.5,495 247.5,455 	"/>
	<rect x="122.532" y="135.729" style="fill:#EA348B;" width="52.634" height="231.999"/>
	<path style="fill:#EA348B;" d="M270.279,371.601c21.615,0,42.008-9.72,52.637-28.569h0.789l2.293,24.695h46.47
		c-0.591-11.261-1.382-31.335-1.382-50.302V123.399h-52.319v91.205h-0.632c-7.549-11.698-23.75-18.969-44.456-18.969
		c-40.269,0-75.793,32.72-75.318,89.546C198.361,337.499,230.29,371.601,270.279,371.601z M287.43,235.626
		c16.203,0,27.464,11.736,30.547,25.764c0.475,2.766,0.791,6.64,0.791,9.406v21.931c0,4.464-0.316,8.338-1.385,12.052
		c-3.082,14.819-15.135,25.132-30.269,25.132c-21.772,0-35.802-17.901-35.802-46.431
		C251.312,256.926,263.641,235.626,287.43,235.626z"/>
</g>
</svg>